<?xml version="1.0" encoding="iso-8859-1"?>
<!-- Generator: Adobe Illustrator 19.0.0, SVG Export Plug-In . SVG Version: 6.00 Build 0)  -->
<svg version="1.1" id="Capa_1" xmlns="http://www.w3.org/2000/svg" xmlns:xlink="http://www.w3.org/1999/xlink" x="0px" y="0px"
	 viewBox="0 0 512 512" style="enable-background:new 0 0 512 512;" xml:space="preserve">
<path style="fill:#FF3F62;" d="M382.603,120.409L275.842,244.962l-8.293,9.68c-6.081,7.087-17.048,7.087-23.129-0.01
	L129.377,120.409c-24.285-28.326-20.244-67.167,1.407-91.11c11.449-12.665,27.834-21.159,47.555-21.732
	c0.774-0.02,1.568-0.03,2.352-0.03c31.01,0,57.889,17.711,71.067,43.565c1.769,3.458,6.705,3.458,8.474-0.01
	C273.4,25.248,300.279,7.537,331.289,7.537c0.784,0,1.578,0.01,2.352,0.03C390.665,9.226,419.725,77.096,382.603,120.409z"/>
<path style="fill:#FF728B;" d="M382.603,120.409L275.842,244.962L147.832,95.621c-16.988-19.822-21.722-44.198-17.048-66.322
	c11.449-12.665,27.834-21.159,47.555-21.732c0.774-0.02,1.568-0.03,2.352-0.03c31.01,0,57.889,17.711,71.067,43.565
	c1.769,3.458,6.705,3.458,8.474-0.01C273.4,25.248,300.279,7.537,331.289,7.537c0.784,0,1.578,0.01,2.352,0.03
	C390.665,9.226,419.725,77.096,382.603,120.409z"/>
<path style="fill:#FFA733;" d="M215.801,296.43l-16.593-8.956l-32.19-72.671c-3.932-8.878-14.414-12.925-23.292-8.991l0,0
	c-8.638,3.826-12.678,13.846-9.272,22.562l-24.033-54.256c-3.932-8.878-14.414-12.925-23.292-8.991
	c-8.878,3.933-12.925,14.414-8.991,23.292l-12.048-27.042c-3.932-8.878-14.414-12.925-23.292-8.991s-12.925,14.414-8.991,23.292
	l9.52,21.941c-3.959-9.335-14.842-13.74-24.185-9.78c-8.706,3.688-13.12,13.39-10.48,22.254l0.017,0.052
	c0.035,0.096,0.061,0.192,0.087,0.288c44.802,102.74,41.531,94.586,43.108,99.048c5.989,17.159,17.154,23.55,28.52,36.046
	c21.343,21.368,45.288,19.106,64.106,33.612c3.129,2.412,4.901,6.19,4.901,10.141c0,37.944,0,66.58,0,105.108
	c0,5.563,4.779,10.073,10.674,10.073h72.386c5.895,0,10.674-4.509,10.674-10.073c0-15.259,0-136.128,0-149.369
	C243.045,325.22,232.591,306.918,215.801,296.43z"/>
<path style="fill:#FFB655;" d="M121.023,328.986L121.023,328.986c-8.878,3.932-19.36-0.114-23.292-8.991L33.803,175.677
	c-3.932-8.878,0.114-19.36,8.991-23.292l0,0c8.878-3.932,19.36,0.114,23.292,8.991l63.927,144.318
	C133.947,314.571,129.901,325.052,121.023,328.986z"/>
<path style="fill:#FFA733;" d="M165.355,341.726L165.355,341.726c-8.878,3.932-19.36-0.114-23.292-8.991L78.136,188.417
	c-3.932-8.878,0.114-19.36,8.991-23.292l0,0c8.878-3.932,19.36,0.114,23.292,8.991l63.927,144.318
	C178.28,327.312,174.234,337.794,165.355,341.726z"/>
<path style="fill:#FF9811;" d="M221.952,382.411L221.952,382.411c-8.878,3.932-19.36-0.114-23.292-8.991l-63.927-144.318
	c-3.932-8.878,0.114-19.36,8.991-23.292l0,0c8.878-3.932,19.36,0.114,23.292,8.991l63.927,144.318
	C234.877,367.997,230.831,378.479,221.952,382.411z"/>
<path style="fill:#FFB655;" d="M243.134,345.018v149.371c0,5.559-4.785,10.072-10.675,10.072h-72.384
	c-5.9,0-10.675-4.513-10.675-10.072V389.277c0-3.95-1.769-7.73-4.905-10.142c-18.817-14.505-42.761-12.243-64.101-33.613
	c-11.369-12.494-22.536-18.887-28.517-36.046c-1.578-4.463,1.689,3.699-43.112-99.041c-0.03-0.101-0.05-0.191-0.09-0.292l-0.01-0.05
	c-2.644-8.866,1.769-18.566,10.474-22.255c2.02-0.854,4.111-1.317,6.192-1.427c7.529-0.402,14.887,3.89,17.993,11.208l28.256,62.714
	c6.544,15.42,16.153,21.008,29.693,35.564c7.408,7.398,19.37,7.479,26.869,0.191l-4.875-4.845l-8.594-8.604
	c-9.278-9.278-9.278-24.326,0-33.603c1.488-1.478,3.327-2.071,5.348-2.071c3.84,0,8.333,2.121,12.314,4.413l83.471,45.052
	C232.589,306.922,243.043,325.216,243.134,345.018z"/>
<path style="fill:#FFC477;" d="M243.134,345.018V486.71h-65.639c-5.89,0-10.675-4.513-10.675-10.072V371.525
	c0-3.95-1.769-7.73-4.895-10.142c-18.817-14.505-42.771-12.243-64.111-33.613c-11.369-12.494-22.526-18.887-28.517-36.046
	c-1.578-4.453,1.689,3.699-43.112-99.041c-0.02-0.101-0.05-0.191-0.08-0.291l-0.02-0.05c-0.583-1.96-0.824-3.96-0.754-5.931
	c7.529-0.402,14.887,3.89,17.993,11.208l28.256,62.714c6.544,15.42,16.153,21.008,29.693,35.564
	c7.408,7.398,19.37,7.479,26.869,0.191l-4.875-4.845l-8.594-8.604c-9.278-9.278-9.278-24.326,0-33.603
	c1.488-1.478,3.327-2.071,5.348-2.071c3.84,0,8.333,2.121,12.314,4.413l83.471,45.052
	C232.589,306.922,243.043,325.216,243.134,345.018z"/>
<path style="fill:#5AAAE7;" d="M149.399,494.387c0,5.563,4.779,10.073,10.674,10.073h72.386c5.895,0,10.674-4.509,10.674-10.073
	v-68.954h-93.734V494.387z"/>
<path style="fill:#3D9AE2;" d="M243.134,486.71v7.68c0,5.559-4.785,10.072-10.675,10.072h-72.384c-5.9,0-10.675-4.513-10.675-10.072
	v-68.956h17.42v51.204c0,5.559,4.785,10.072,10.675,10.072H243.134z"/>
<g>
	<path style="fill:#FFB655;" d="M296.179,296.43l16.593-8.956l32.19-72.671c3.932-8.878,14.414-12.925,23.292-8.991l0,0
		c8.638,3.826,12.678,13.846,9.272,22.562l24.033-54.256c3.932-8.878,14.414-12.925,23.292-8.991
		c8.878,3.933,12.925,14.414,8.991,23.292l12.048-27.042c3.932-8.878,14.414-12.925,23.292-8.991s12.925,14.414,8.991,23.292
		l-9.52,21.941c3.959-9.335,14.842-13.74,24.185-9.78c8.706,3.688,13.12,13.39,10.48,22.254l-0.017,0.052
		c-0.035,0.096-0.061,0.192-0.087,0.288c-44.802,102.74-41.531,94.586-43.108,99.048c-5.989,17.159-17.154,23.55-28.52,36.046
		c-21.343,21.368-45.288,19.106-64.106,33.612c-3.129,2.412-4.901,6.19-4.901,10.141c0,37.944,0,66.58,0,105.108
		c0,5.563-4.779,10.073-10.674,10.073h-72.385c-5.895,0-10.674-4.509-10.674-10.073c0-15.259,0-136.128,0-149.369
		C268.935,325.22,279.389,306.918,296.179,296.43z"/>
	<path style="fill:#FFB655;" d="M390.957,328.986L390.957,328.986c8.878,3.932,19.36-0.114,23.292-8.991l63.927-144.318
		c3.932-8.878-0.114-19.36-8.991-23.292l0,0c-8.878-3.932-19.36,0.114-23.292,8.991l-63.927,144.318
		C378.033,314.571,382.08,325.052,390.957,328.986z"/>
</g>
<path style="fill:#FFA733;" d="M346.625,341.726L346.625,341.726c8.878,3.932,19.36-0.114,23.292-8.991l63.927-144.318
	c3.932-8.878-0.114-19.36-8.991-23.292l0,0c-8.878-3.932-19.36,0.114-23.292,8.991l-63.927,144.318
	C333.7,327.312,337.747,337.794,346.625,341.726z"/>
<path style="fill:#FF9811;" d="M290.028,382.411L290.028,382.411c8.878,3.932,19.36-0.114,23.292-8.991l63.927-144.318
	c3.932-8.878-0.114-19.36-8.991-23.292l0,0c-8.878-3.932-19.36,0.114-23.292,8.991l-63.927,144.318
	C277.103,367.997,281.15,378.479,290.028,382.411z"/>
<path style="fill:#FFB655;" d="M268.846,345.018v149.371c0,5.559,4.785,10.072,10.675,10.072h72.384
	c5.9,0,10.675-4.513,10.675-10.072V389.277c0-3.95,1.769-7.73,4.905-10.142c18.817-14.505,42.761-12.243,64.101-33.613
	c11.369-12.494,22.536-18.887,28.517-36.046c1.578-4.463-1.689,3.699,43.112-99.041c0.03-0.101,0.05-0.191,0.09-0.292l0.01-0.05
	c2.644-8.866-1.769-18.566-10.474-22.255c-2.02-0.854-4.111-1.317-6.192-1.427c-7.529-0.402-14.887,3.89-17.993,11.208
	l-28.256,62.714c-6.544,15.42-16.153,21.008-29.693,35.564c-7.408,7.398-19.37,7.479-26.869,0.191l4.875-4.845l8.594-8.604
	c9.278-9.278,9.278-24.326,0-33.603c-1.488-1.478-3.327-2.071-5.348-2.071c-3.84,0-8.333,2.121-12.314,4.413l-83.471,45.052
	C279.391,306.922,268.937,325.216,268.846,345.018z"/>
<path style="fill:#FFC477;" d="M268.846,345.018V486.71h65.639c5.89,0,10.675-4.513,10.675-10.072V371.525
	c0-3.95,1.769-7.73,4.895-10.142c18.817-14.505,42.771-12.243,64.111-33.613c11.369-12.494,22.526-18.887,28.517-36.046
	c1.578-4.453-1.689,3.699,43.112-99.041c0.02-0.101,0.05-0.191,0.08-0.291l0.02-0.05c0.583-1.96,0.824-3.96,0.754-5.931
	c-7.529-0.402-14.887,3.89-17.993,11.208l-28.256,62.714c-6.544,15.42-16.153,21.008-29.693,35.564
	c-7.408,7.398-19.37,7.479-26.869,0.191l4.875-4.845l8.594-8.604c9.278-9.278,9.278-24.326,0-33.603
	c-1.488-1.478-3.327-2.071-5.348-2.071c-3.84,0-8.333,2.121-12.314,4.413l-83.471,45.052
	C279.391,306.922,268.937,325.216,268.846,345.018z"/>
<path style="fill:#5AAAE7;" d="M362.581,494.387c0,5.563-4.779,10.073-10.674,10.073h-72.386c-5.895,0-10.674-4.509-10.674-10.073
	v-68.954h93.734L362.581,494.387L362.581,494.387z"/>
<path style="fill:#3D9AE2;" d="M268.846,486.71v7.68c0,5.559,4.785,10.072,10.675,10.072h72.384c5.9,0,10.675-4.513,10.675-10.072
	v-68.956h-17.42v51.204c0,5.559-4.785,10.072-10.675,10.072H268.846z"/>
<path d="M219.381,289.793l-14.334-7.74l-31.141-70.303c-7.305-16.53-29.382-20.207-41.595-6.825l-14.997-33.865
	c-7.357-16.62-29.564-20.18-41.675-6.735c-1.813-2.958-3.898-14.379-16.626-19.279c-20.838-8.056-41.176,13.174-32.106,33.684
	l0.05,0.121c-16.343-0.744-30.715,15.216-25.451,33.624c0.201,0.736-0.683-1.38,12.042,27.783c1.669,3.82,6.112,5.559,9.931,3.89
	c3.81-1.669,5.559-6.112,3.89-9.921c-3.438-7.871-7.257-16.636-11.519-26.406c-1.469-5.168,1.069-10.851,6.232-13.047
	c5.515-2.322,11.939,0.243,14.304,5.79c0.588,1.473,28.215,62.635,28.286,62.794c7.921,18.598,21.567,26.553,31.271,37.875
	c7.185,7.185,17.527,9.477,26.778,6.614c2.486,0,12.494-6.376,12.494-9.187c0.993-2.648,0.378-5.804-1.759-7.911
	c-0.102-0.102-3.48-3.47-3.267-3.257c-6.969-8.085-14.937-11.549-14.937-21.662c0-3.723,1.581-7.371,1.98-7.77
	c0.704-1.287,1.588-2.483,2.634-3.558c3.156,0.393,1.533-0.777,44.48,22.717c50.87,27.458,47.664,25.515,50.963,28.004
	c23.832,17.703,19.892,43.9,20.285,45.786v29.462v37.423h-78.656v-28.618c0-6.303-2.935-12.324-7.84-16.113
	c-20.302-15.648-43.353-13.019-63.256-32.849c-11.632-12.752-21.577-18.186-26.859-33.352c-1.199-3.413,0.265,0.132-19.551-45.143
	c-1.669-3.81-6.112-5.549-9.931-3.88c-3.81,1.669-5.549,6.112-3.88,9.921c19.723,45.096,18.125,41.212,19.129,44.098
	c5.601,16.03,14.221,22.806,30.306,38.891c22.742,22.777,47.526,20.928,64.835,34.257c3.467,2.677,1.303,4.527,1.97,40.328
	c0,16.081,0,55.98,0,68.956c0,9.71,8.172,17.611,18.214,17.611h72.384c10.042,0,18.214-7.901,18.214-17.611
	c0-12.954,0-52.663,0-68.956v-80.445C250.564,320.935,236.857,299.781,219.381,289.793z M115.314,293.945
	c-3.207,0.141-6.323-1.045-8.625-3.297c-31.702-33.932-13.412-0.19-65.991-118.029c-1.086-2.453-1.146-5.197-0.171-7.73
	c3.264-8.479,15.07-8.588,18.666-0.462l41.786,94.337C96.061,279.925,113.722,291.536,115.314,293.945z M110.439,242.72
	c0,0,0,0-0.01,0l-25.401-57.356c-3.638-8.198,4.49-16.766,12.886-13.52c2.533,0.985,4.523,2.875,5.609,5.327l23.813,53.747v0.01
	c0.323,0.883,0.256,0.651,5.287,12.032C125.163,239.231,116.859,237.447,110.439,242.72z M154.366,254.692l-13.027-29.392
	c-2.828-8.018,5.057-15.901,13.168-12.766c2.543,0.975,4.533,2.865,5.619,5.317l23.26,52.511L154.366,254.692z M235.595,494.389
	c0,1.367-1.437,2.533-3.136,2.533h-72.384c-1.699,0-3.136-1.166-3.136-2.533v-20.375h78.656V494.389z M235.595,458.936h-78.656
	v-25.964h78.656V458.936z"/>
<path d="M485.042,178.851l0.05-0.121c9.071-20.51-11.268-41.739-32.106-33.684c-12.728,4.9-14.812,16.321-16.626,19.279
	c-12.112-13.445-34.318-9.885-41.675,6.735l-14.997,33.865c-12.213-13.382-34.29-9.705-41.595,6.825l-31.141,70.303l-14.334,7.74
	c-17.476,9.988-31.184,31.142-31.291,55.195v80.445c0,16.081,0,55.98,0,68.956c0,9.71,8.172,17.611,18.214,17.611h72.384
	c10.042,0,18.214-7.901,18.214-17.611c0-12.954,0-52.663,0-68.956c0.667-35.801-1.497-37.651,1.97-40.328
	c17.308-13.329,42.092-11.48,64.835-34.257c16.085-16.085,24.706-22.861,30.306-38.891c1.004-2.886-0.594,0.998,19.129-44.098
	c1.669-3.81-0.07-8.253-3.88-9.921c-3.82-1.669-8.263,0.07-9.931,3.88c-19.816,45.275-18.352,41.73-19.551,45.143
	c-5.281,15.166-15.227,20.6-26.859,33.352c-19.904,19.83-42.955,17.202-63.256,32.849c-4.905,3.79-7.84,9.811-7.84,16.113v28.618
	h-78.656c0-7.355,0-60.337,0-66.885c0.393-1.887-3.547-28.083,20.285-45.786c3.299-2.49,0.092-0.547,50.963-28.004
	c42.947-23.494,41.323-22.324,44.48-22.717c1.045,1.076,1.93,2.272,2.634,3.558c0.399,0.399,1.98,4.047,1.98,7.77
	c0,10.113-7.968,13.577-14.937,21.662c0.213-0.213-3.165,3.155-3.267,3.257c-2.137,2.107-2.752,5.263-1.759,7.911
	c0,2.811,10.009,9.187,12.494,9.187c9.251,2.863,19.593,0.571,26.778-6.614c9.704-11.322,23.35-19.277,31.271-37.875l16.395-36.388
	c15.17-33.68,11.07-24.349,11.891-26.406c2.365-5.547,8.788-8.112,14.304-5.79c5.164,2.196,7.701,7.88,6.232,13.047
	c-4.262,9.77-8.082,18.536-11.519,26.406c-1.669,3.81,0.08,8.253,3.89,9.921c3.82,1.669,8.263-0.07,9.931-3.89
	c12.725-29.163,11.841-27.048,12.042-27.783C515.757,194.066,501.385,178.107,485.042,178.851z M276.405,432.972h78.656v25.964
	h-78.656V432.972z M276.405,474.014h78.656v20.375c0,1.367-1.437,2.533-3.136,2.533h-72.384c-1.699,0-3.136-1.166-3.136-2.533
	V474.014z M370.662,225.301l-13.027,29.392l-29.02,15.671l23.26-52.511c1.086-2.453,3.076-4.342,5.619-5.317
	C365.605,209.4,373.49,217.282,370.662,225.301z M379.377,242.962c5.031-11.381,4.965-11.15,5.287-12.032v-0.01l23.813-53.747
	c1.086-2.453,3.076-4.342,5.609-5.327c8.396-3.246,16.524,5.321,12.887,13.52l-25.401,57.356c-0.01,0-0.01,0-0.01,0
	C395.141,237.447,386.837,239.231,379.377,242.962z M471.301,172.619c-52.578,117.839-34.289,84.097-65.991,118.029
	c-2.302,2.252-5.418,3.438-8.625,3.297c1.592-2.408,19.253-14.019,14.334-35.182l41.786-94.337
	c3.597-8.126,15.402-8.016,18.666,0.462C472.447,167.422,472.387,170.166,471.301,172.619z"/>
<path d="M273.272,259.543l115.06-134.23C429.984,76.715,396.579,0,331.285,0c-31.253,0-59.649,16.4-75.292,43.136
	c-16.063-27.44-45.552-44.011-77.874-43.099c-63.351,1.837-95.689,77.187-54.471,125.278l54.146,63.172
	c2.709,3.161,7.469,3.527,10.63,0.817c3.161-2.71,3.527-7.469,0.817-10.63l-54.145-63.172c-9.66-11.271-14.765-24.901-14.765-39.418
	c-0.001-31.194,23.826-61.006,60.362-61.006c27.285,0,51.941,15.114,64.348,39.445c2.11,4.137,6.307,6.708,10.952,6.708
	s8.842-2.571,10.952-6.711c12.743-25.003,38.383-40.217,66.477-39.411c50.526,1.467,76.556,61.778,43.461,100.394l-115.06,134.229
	c-3.073,3.585-8.6,3.592-11.679,0l-41.279-48.161c-2.71-3.162-7.47-3.528-10.63-0.817c-3.161,2.709-3.527,7.469-0.817,10.63
	l41.279,48.161c4.331,5.053,10.632,7.952,17.287,7.952C262.64,267.494,268.941,264.596,273.272,259.543z"/>
<path d="M255.99,70.361c-4.163,0-7.539,3.375-7.539,7.539v33.674h-38.197c-4.163,0-7.539,3.375-7.539,7.539s3.375,7.539,7.539,7.539
	h38.197v90.969c0,4.163,3.375,7.539,7.539,7.539c4.163,0,7.539-3.375,7.539-7.539v-90.969h38.197c4.163,0,7.539-3.375,7.539-7.539
	s-3.375-7.539-7.539-7.539h-38.197V77.9C263.529,73.736,260.153,70.361,255.99,70.361z"/>
<g>
</g>
<g>
</g>
<g>
</g>
<g>
</g>
<g>
</g>
<g>
</g>
<g>
</g>
<g>
</g>
<g>
</g>
<g>
</g>
<g>
</g>
<g>
</g>
<g>
</g>
<g>
</g>
<g>
</g>
</svg>
